<?xml version="1.0" standalone="no"?><!DOCTYPE svg PUBLIC "-//W3C//DTD SVG 1.1//EN" "http://www.w3.org/Graphics/SVG/1.1/DTD/svg11.dtd"><svg t="1610893682251" class="icon" viewBox="0 0 1024 1024" version="1.1" xmlns="http://www.w3.org/2000/svg" p-id="2100" xmlns:xlink="http://www.w3.org/1999/xlink" width="128" height="128"><defs><style type="text/css"></style></defs><path d="M840.65 540.62h-655.9c-12.18 0-22.05-9.87-22.05-22.05v-5.9c0-12.18 9.87-22.05 22.05-22.05h655.9c12.18 0 22.05 9.87 22.05 22.05v5.9c0 12.18-9.87 22.05-22.05 22.05z" fill="#ffffff" p-id="2101"></path><path d="M517.69 863.19h-5.9c-12.18 0-22.05-9.87-22.05-22.05v-655.9c0-12.18 9.87-22.05 22.05-22.05h5.9c12.18 0 22.05 9.87 22.05 22.05v655.9c0 12.17-9.87 22.05-22.05 22.05z" fill="#ffffff" p-id="2102"></path></svg>