<?xml version="1.0" standalone="no"?><!DOCTYPE svg PUBLIC "-//W3C//DTD SVG 1.1//EN" "http://www.w3.org/Graphics/SVG/1.1/DTD/svg11.dtd"><svg t="1612006658777" class="icon" viewBox="0 0 1024 1024" version="1.1" xmlns="http://www.w3.org/2000/svg" p-id="15897" xmlns:xlink="http://www.w3.org/1999/xlink" width="128" height="128"><defs><style type="text/css"></style></defs><path d="M292.547048 365.738667V192.804571C296.374857 194.169905 288.256 219.428571 292.571429 219.428571l85.333333-24.380952 12.190476-48.761905s-21.26019 2.730667 0 0h243.809524l12.190476 48.761905L707.047619 219.428571l48.761905-24.380952s1.389714-69.290667 0-73.142857h121.904762l73.142857 73.142857v170.666667l-658.310095 0.024381z" fill="#FFCB57" p-id="15898"></path><path d="M841.289143 999.619048H182.710857C108.81219 999.619048 48.761905 941.83619 48.761905 870.716952V236.982857c0-71.119238 60.050286-128.902095 133.948952-128.902095h62.634667v-5.510095C245.345524 59.465143 281.819429 24.380952 326.582857 24.380952c44.78781 0 81.261714 35.08419 81.261714 78.189715v5.510095h212.041143v-5.510095C619.885714 59.465143 656.359619 24.380952 701.147429 24.380952c44.763429 0 81.237333 35.08419 81.237333 78.189715v5.510095h58.904381C915.18781 108.080762 975.238095 165.863619 975.238095 236.982857v633.734095C975.238095 941.83619 915.18781 999.619048 841.289143 999.619048zM363.25181 102.570667c0-19.480381-16.432762-35.279238-36.668953-35.279238s-36.644571 15.798857-36.644571 35.279238v5.510095h73.313524v-5.510095z m0 48.493714h-73.313524v12.873143c0 19.480381 16.408381 35.279238 36.644571 35.279238 20.23619 0 36.668952-15.798857 36.668953-35.279238v-12.873143z m374.54019-48.493714c0-19.480381-16.408381-35.279238-36.644571-35.279238-20.260571 0-36.668952 15.798857-36.668953 35.279238v5.510095h73.313524v-5.510095z m0 48.493714h-73.313524v12.873143c0 19.480381 16.408381 35.279238 36.668953 35.279238 20.23619 0 36.644571-15.798857 36.644571-35.279238v-12.873143z m192.78019 85.918476c0-47.420952-40.106667-85.918476-89.283047-85.918476H782.384762v12.873143c0.097524 43.081143-36.376381 78.189714-81.237333 78.189714-44.78781 0-81.261714-35.108571-81.261715-78.189714v-12.873143h-212.041143v12.873143c0.097524 43.081143-36.376381 78.189714-81.261714 78.189714-44.763429 0-81.237333-35.108571-81.237333-78.189714v-12.873143H182.710857c-49.273905 0-89.283048 38.595048-89.283047 85.918476v126.512762h837.14438V236.982857z m0 169.496381H93.42781v464.237714c0 47.420952 40.106667 85.918476 89.283047 85.918477h658.578286c49.273905 0 89.283048-38.595048 89.283047-85.918477V406.479238zM515.047619 899.925333l-92.306286-12.580571v-11.946667l130.974477-332.653714h-193.999239c0-25.819429-0.658286-51.102476-0.658285-76.921905l15.750095-12.580571h277.065143l13.06819 61.732571v17.017905l-130.31619 354.084571-19.577905 13.848381z" fill="#7A590E" p-id="15899"></path></svg>