<?xml version="1.0" standalone="no"?><!DOCTYPE svg PUBLIC "-//W3C//DTD SVG 1.1//EN" "http://www.w3.org/Graphics/SVG/1.1/DTD/svg11.dtd"><svg t="1612006611116" class="icon" viewBox="0 0 1024 1024" version="1.1" xmlns="http://www.w3.org/2000/svg" p-id="10874" xmlns:xlink="http://www.w3.org/1999/xlink" width="128" height="128"><defs><style type="text/css"></style></defs><path d="M573.742673 307.421395c-38.897164 0-69.416509 32.369305-69.416508 32.369305s-28.775382-32.369305-69.418509-32.369305c-39.533151 0-71.812457 36.421218-73.924411 80.52627-1.191974 24.915465 5.997871 43.871057 16.129653 61.046689 20.237565 34.311263 127.345264 103.903768 127.345264 103.903767s106.709707-69.298511 127.08127-103.903767c10.155782-17.253629 17.321628-36.133224 16.129653-61.046689-2.109955-44.107052-34.389261-80.52627-73.926412-80.52627" fill="#DE5E88" p-id="10875"></path><path d="M511.998 31.031333c-213.465414 0-386.511696 173.046282-386.511696 386.511696 0 298.085596 386.515696 563.369896 386.515696 563.369897s386.515696-265.284301 386.515696-563.369897C898.513696 204.077616 725.463414 31.031333 511.998 31.031333zM631.541432 448.990354c-20.371562 34.609256-127.08127 103.903768-127.08127 103.903767s-107.105699-69.596505-127.345264-103.903767c-10.131782-17.175631-17.321628-36.133224-16.129654-61.046689 2.113955-44.101053 34.391261-80.52627 73.924412-80.52627 40.645127 0 69.418509 32.369305 69.418509 32.369305s30.515344-32.369305 69.416508-32.369305c39.533151 0 71.812457 36.421218 73.924412 80.52627 1.193974 24.913465-5.973872 43.797059-16.127653 61.046689z" fill="#FECC85" p-id="10876"></path><path d="M846.604811 1023.968001c-2.017957 0-4.033913-0.189996-6.05187-0.589988a31.463324 31.463324 0 0 1-5.801875-1.767962 33.05929 33.05929 0 0 1-5.367885-2.853938c-1.675964-1.147975-3.289929-2.417948-4.715898-3.877917a29.76736 29.76736 0 0 1-3.847918-4.715899 31.247329 31.247329 0 0 1-2.853938-5.339885 32.5773 32.5773 0 0 1-1.767962-5.799875 30.871337 30.871337 0 0 1-0.619987-6.08187c0-2.017957 0.217995-4.067913 0.619987-6.05187 0.403991-1.989957 0.993979-3.943915 1.767962-5.801875 0.775983-1.891959 1.737963-3.691921 2.853938-5.367885 1.117976-1.705963 2.419948-3.289929 3.847918-4.715898s3.041935-2.729941 4.715898-3.847918a32.751296 32.751296 0 0 1 5.367885-2.853938 31.20533 31.20533 0 0 1 5.801875-1.767962 30.747339 30.747339 0 0 1 12.13374 0c1.985957 0.403991 3.939915 0.993979 5.801875 1.767962a33.05929 33.05929 0 0 1 5.367885 2.853938c1.675964 1.117976 3.289929 2.419948 4.715898 3.847918s2.729941 3.009935 3.847918 4.715898c1.117976 1.675964 2.079955 3.475925 2.853938 5.367885 0.775983 1.86196 1.365971 3.813918 1.767962 5.801875 0.403991 1.985957 0.619987 4.033913 0.619987 6.05187 0 2.043956-0.217995 4.065913-0.619987 6.08187a32.909293 32.909293 0 0 1-1.767962 5.799875 31.453324 31.453324 0 0 1-2.853938 5.339885 29.857359 29.857359 0 0 1-3.877917 4.715899 29.727361 29.727361 0 0 1-4.715899 3.877917 31.20533 31.20533 0 0 1-11.13976 4.6219 30.791338 30.791338 0 0 1-6.08187 0.589988zM434.911656 276.390062c-55.8768 0-101.963809 48.348961-104.921746 110.073635-1.731963 36.247221 10.811768 62.042667 20.397562 78.294318 22.78951 38.63317 118.255459 101.871811 137.163053 114.157547a30.999334 30.999334 0 0 0 16.909637 5.011893c5.879874 0 11.759747-1.669964 16.899637-5.005893 18.845595-12.235737 114.001551-75.252383 136.925058-114.187547v-0.003999c9.579794-16.27165 22.113525-42.091096 20.383562-78.272319-2.957936-61.720674-49.044946-110.069635-104.921746-110.069635-28.471388 0-52.636869 11.863745-69.102515 23.055505-16.27565-11.259758-40.335133-23.053505-69.732502-23.053505z m138.835017 62.060667c22.32352 0 41.581107 22.867509 42.929078 50.976904 0.743984 15.531666-2.695942 28.229394-11.875745 43.819059-9.101804 15.459668-56.096795 52.318876-100.337844 82.38423-44.427046-30.183352-91.584032-67.092559-100.617838-82.40823-9.169803-15.543666-12.605729-28.231393-11.859746-43.793059 1.345971-28.111396 20.605557-50.976905 42.929078-50.976904 25.739447 0 46.187008 21.917529 46.223007 21.951528a31.023333 31.023333 0 0 0 22.735512 10.411776c8.675814 0.203996 17.061633-3.407927 23.031505-9.73979 0.215995-0.225995 22.431518-22.625514 46.842993-22.625514z" fill="" p-id="10877"></path><path d="M754.0268 961.915334h-165.732439c37.433196-30.279349 88.348102-74.744394 139.651-129.741213 133.771126-143.394919 201.599669-282.895922 201.599668-414.633092C929.545029 187.309976 742.233054 0 511.998 0S94.454971 187.309976 94.454971 417.547029c0 131.73517 67.826543 271.238173 201.599668 414.633092 51.302898 54.996818 102.219804 99.459863 139.651 129.741213H177.379189c-17.137632 0-31.031333 13.895701-31.031333 31.031333s13.891702 31.031333 31.031333 31.031333h576.651611c17.137632 0 31.031333-13.895701 31.031333-31.031333s-13.897701-31.037333-31.035333-31.037333zM156.517637 417.547029c0-196.013789 159.468574-355.484363 355.480363-355.484362s355.484363 159.470574 355.484363 355.484362c0 242.836783-281.58195 469.66591-355.484363 525.002721-73.910412-55.340811-355.480363-282.169938-355.480363-525.002721z" fill="" p-id="10878"></path><path d="M766.370535 539.964399a291.219743 291.219743 0 0 0 7.667835-17.485624c6.357863-15.915658-1.38997-33.96927-17.305628-40.327134-15.913658-6.361863-33.96927 1.38797-40.331133 17.303629a226.077143 226.077143 0 0 1-6.017871 13.725705c-37.755189 78.902305-118.641451 129.88321-206.057573 129.883209-125.879296 0-228.291095-102.4118-228.291095-228.291095 0-125.877296 102.4118-228.289095 228.291095-228.289095 17.137632 0 31.031333-13.895701 31.031333-31.031334s-13.891702-31.031333-31.031333-31.031333c-160.10056 0-290.353762 130.253202-290.353762 290.349762 0 160.10456 130.253202 290.353762 290.353762 290.353762 111.175611-0.002 214.033402-64.828607 262.04437-165.160452zM763.658593 447.662382c-2.047956 0-4.065913-0.213995-6.081869-0.619986a31.351326 31.351326 0 0 1-5.801875-1.765962 33.217286 33.217286 0 0 1-5.367885-2.853939 31.083332 31.083332 0 0 1-4.715899-3.847918 29.619364 29.619364 0 0 1-3.847917-4.719898 31.483324 31.483324 0 0 1-4.621901-11.16776 30.641342 30.641342 0 0 1-0.589987-6.05187c0-8.191824 3.289929-16.167653 9.061805-21.935529 1.427969-1.461969 3.041935-2.733941 4.715899-3.877917a32.751296 32.751296 0 0 1 5.367885-2.853938 31.20533 31.20533 0 0 1 5.801875-1.767962 30.747339 30.747339 0 0 1 12.133739 0c1.985957 0.403991 3.941915 0.993979 5.801876 1.767962a33.05929 33.05929 0 0 1 5.367884 2.853938 32.687298 32.687298 0 0 1 4.715899 3.877917c5.771876 5.739877 9.061805 13.745705 9.061805 21.935529a30.479345 30.479345 0 0 1-0.589987 6.05187 31.509323 31.509323 0 0 1-4.621901 11.16776 31.351326 31.351326 0 0 1-3.847917 4.719898 31.287328 31.287328 0 0 1-21.941529 9.087805z" fill="" p-id="10879"></path></svg>