<?xml version="1.0" standalone="no"?><!DOCTYPE svg PUBLIC "-//W3C//DTD SVG 1.1//EN" "http://www.w3.org/Graphics/SVG/1.1/DTD/svg11.dtd"><svg t="1612006368514" class="icon" viewBox="0 0 1024 1024" version="1.1" xmlns="http://www.w3.org/2000/svg" p-id="2187" xmlns:xlink="http://www.w3.org/1999/xlink" width="128" height="128"><defs><style type="text/css"></style></defs><path d="M332.6 114.32c13.35 22.39-14.22 35.99-10.08 56.72 6.44 32.3 32.59-0.62 32.62-19.16 0.01-15.34-9-30.36-22.54-37.56zM483.46 114.32c13.35 22.39-14.22 35.99-10.08 56.72 6.44 32.3 32.59-0.62 32.62-19.16 0.01-15.34-9-30.36-22.54-37.56zM634.32 114.32c13.35 22.39-14.22 35.99-10.08 56.72 6.44 32.3 32.59-0.62 32.62-19.16 0.02-15.34-8.99-30.36-22.54-37.56z" fill="#FF686E" p-id="2188"></path><path d="M915.18 846.63H152.11V618.84c0-18.97 15.38-34.34 34.34-34.34h694.38c18.97 0 34.34 15.38 34.34 34.34" fill="#F8E868" p-id="2189"></path><path d="M122.57 674.99c10.57 11.13 27.2 16.71 42.3 12.62 18.28-4.95 32.66-19.42 48.27-29.39 14.26-9.11 30.76-14.21 47.79-12.19 28.13 3.35 46.76 25.41 70.88 37.57 12.48 6.3 25.83 7.66 39.18 3.29 8.67-2.84 16.88-7.43 24.32-12.67 5.15-3.63 9.9-7.98 15.39-11.11 13.77-7.87 31.07-3.25 44.64 2.9 13.98 6.33 24.55 17.5 35.16 28.23 9.7 9.81 20.39 19.35 34.92 19.85 17.01 0.59 32.6-7.54 44.73-18.89 23.74-22.22 40-54.84 73.83-63.36 18.89-4.75 36.49 2.69 51.95 13.18 16.48 11.18 31.75 24.46 50.94 30.94 6.97 2.35 14.41 3.68 21.71 2.18 7.35-1.51 13.9-5.18 20.07-9.31 17.1-11.43 31.48-26.11 47.78-38.5 13.36-10.16 29.08-14.24 45.14-12.2-0.38-18.64-15.6-33.63-34.33-33.63H152.86c-18.97 0-34.34 15.38-34.34 34.34v51.41c1.27 1.64 2.62 3.23 4.05 4.74z" fill="#FFA621" p-id="2190"></path><path d="M915.18 911.21H152.11v-64.93h763.07M872.46 583.36H194.82V372.53c0-18.97 15.38-34.34 34.34-34.34h608.96c18.97 0 34.34 15.38 34.34 34.34v210.83z" fill="#F8E868" p-id="2191"></path><path d="M187.41 446.11c11.13 3.74 22.76 0.85 33.58-3.38 25.67-10.03 49.6-27.74 76.41-31.75 14.37-2.15 29.54 0.06 42.61 8.97 14.71 10.03 27.88 27.48 45.05 28.32 17.79 0.86 32.62-12.9 46.56-26.55 14.24-13.94 28.24-26.33 45.83-29.76 31.97-6.24 58.41 18.55 87.34 32.42 15.28 7.32 31.22 10.09 47.09 4.69 18.7-6.37 33.47-25.91 51.82-33.8 15.1-6.49 31.73-3.17 45.49 6.96 12.77 9.4 25.26 19.63 39.78 22.71 26.23 5.55 53.26-7.66 77.96-18.27 3.93-1.69 7.91-3.43 11.92-5.16v-15.47c0-26.42-15.38-47.84-34.34-47.84H195.57c-18.97 0-34.34 21.42-34.34 47.84v35.81c6.9 11.42 15.56 20.7 26.18 24.26z" fill="#FFA621" p-id="2192"></path><path d="M318.08 207.02h41.05v130.51h-41.05zM468.95 207.02H510v130.51h-41.05zM619.81 207.02h41.05v130.51h-41.05z" fill="#F8E868" p-id="2193"></path><path d="M433.12 591.5h-86.01c-3.87 0-7-3.13-7-7s3.13-7 7-7h86.01c3.87 0 7 3.13 7 7s-3.14 7-7 7z" fill="#7C4924" p-id="2194"></path><path d="M527.09 721.12c-0.64 0-1.28-0.01-1.91-0.03-17.17-0.59-29.48-11.62-39.66-21.92l-1.76-1.79c-9.92-10.05-19.28-19.54-31.31-24.99-16.23-7.35-29.11-8.43-38.28-3.2-3.04 1.74-5.93 3.99-8.99 6.37-1.87 1.46-3.81 2.96-5.83 4.39-8.86 6.24-17.66 10.81-26.17 13.6-14.76 4.83-30.15 3.55-44.51-3.7-8.93-4.51-17.05-10.23-24.91-15.77-13.96-9.84-27.15-19.14-43.64-21.1-14.21-1.69-29.15 2.16-43.19 11.13-4.52 2.89-8.93 6.17-13.59 9.64-11.11 8.27-22.6 16.82-36.62 20.61-17.1 4.63-36.42-1.09-49.21-14.56a69.15 69.15 0 0 1-4.51-5.27 7.033 7.033 0 0 1-1.47-4.3v-51.41c0-22.8 18.55-41.34 41.34-41.34h111.17c3.87 0 7 3.13 7 7s-3.13 7-7 7H152.86c-15.08 0-27.34 12.27-27.34 27.34v48.94c0.71 0.84 1.42 1.64 2.13 2.39 9.16 9.64 23.38 13.94 35.4 10.68 11.45-3.1 21.39-10.5 31.92-18.33 4.65-3.46 9.47-7.04 14.41-10.2 16.8-10.74 34.91-15.32 52.39-13.24 20.01 2.38 35.28 13.15 50.06 23.56 7.79 5.49 15.14 10.67 23.15 14.71 11.14 5.62 22.53 6.59 33.85 2.89 7.18-2.35 14.74-6.3 22.46-11.74 1.75-1.24 3.48-2.57 5.3-3.99 3.31-2.58 6.74-5.25 10.65-7.48 13.28-7.59 30.44-6.71 51 2.6 14.39 6.52 25.12 17.39 35.5 27.91l1.75 1.77c8.67 8.77 18.14 17.36 30.19 17.77 13.38 0.47 27.5-5.58 39.71-17.01 6.83-6.39 12.97-13.64 19.48-21.3 15.52-18.3 31.57-37.22 57.43-43.73 18.01-4.53 36.85 0.1 57.59 14.18 3.97 2.69 7.9 5.52 11.69 8.26 12.29 8.86 23.89 17.23 37.56 21.84 7.02 2.37 12.92 3.01 18.06 1.95 6.64-1.37 12.62-4.95 17.59-8.27 9.67-6.47 18.35-13.93 27.54-21.84 6.38-5.49 12.99-11.17 19.89-16.42 12.22-9.29 26.29-14.1 41.1-14.15-3.53-11.04-13.95-19.11-26.06-19.11H512.28c-3.87 0-7-3.13-7-7s3.13-7 7-7h334.96c22.33 0 40.87 18.16 41.33 40.49a6.98 6.98 0 0 1-2.32 5.35 7.016 7.016 0 0 1-5.56 1.74c-14.44-1.84-28.29 1.91-40.02 10.83-6.57 5-13.01 10.53-19.24 15.89-9.1 7.83-18.51 15.92-28.89 22.86-5.74 3.84-13.49 8.48-22.55 10.35-7.63 1.57-15.92 0.78-25.36-2.4-15.66-5.29-28.68-14.67-41.27-23.75-3.72-2.68-7.56-5.45-11.36-8.03-17.49-11.86-32.2-15.73-46.31-12.18-21.5 5.41-35.42 21.83-50.17 39.21-6.47 7.63-13.17 15.52-20.59 22.47-14.39 13.49-31.31 20.83-47.84 20.83zM482.96 918.21h-71.35c-3.87 0-7-3.13-7-7s3.13-7 7-7h71.35c3.87 0 7 3.13 7 7s-3.13 7-7 7z" fill="#7C4924" p-id="2195"></path><path d="M881.59 918.21H548.45c-3.87 0-7-3.13-7-7s3.13-7 7-7h326.14v-50.93H125.52v50.93h225.5c3.87 0 7 3.13 7 7s-3.13 7-7 7h-232.5c-3.87 0-7-3.13-7-7v-64.93c0-3.87 3.13-7 7-7h763.07c3.87 0 7 3.13 7 7v64.93c0 3.87-3.14 7-7 7z" fill="#7C4924" p-id="2196"></path><path d="M881.59 853.63H118.52c-3.87 0-7-3.13-7-7v-49.07c0-3.87 3.13-7 7-7s7 3.13 7 7v42.07h749.07V618.84c0-15.08-12.27-27.34-27.34-27.34h-8.37c-3.87 0-7-3.13-7-7V374.53c0-15.08-12.27-27.34-27.34-27.34H195.57c-15.08 0-27.34 12.27-27.34 27.34V584.5c0 3.87-3.13 7-7 7h-8.37c-15.08 0-27.34 12.27-27.34 27.34v87.82c0 3.87-3.13 7-7 7s-7-3.13-7-7v-87.82c0-22.8 18.55-41.34 41.34-41.34h1.37V374.53c0-22.8 18.55-41.34 41.34-41.34h608.96c22.8 0 41.34 18.55 41.34 41.34V577.5h1.37c22.8 0 41.34 18.55 41.34 41.34v227.79c0.01 3.86-3.13 7-6.99 7z" fill="#7C4924" p-id="2197"></path><path d="M118.52 772.3c-3.87 0-7-3.13-7-7v-29.32c0-3.87 3.13-7 7-7s7 3.13 7 7v29.32c0 3.87-3.14 7-7 7zM386.62 455.3c-0.63 0-1.26-0.02-1.9-0.05-14.37-0.7-25.44-10.25-36.15-19.49-4.3-3.71-8.36-7.21-12.5-10.03-13.38-9.13-27.85-9.3-37.63-7.84-16.01 2.39-31.04 10.08-46.95 18.21-9.03 4.62-18.37 9.39-27.95 13.14-10.5 4.1-24.34 8.21-38.36 3.5-11.21-3.77-21.29-12.95-29.94-27.29l-1.01-1.67v-37.76c0-14.23 4.04-27.69 11.37-37.91 7.84-10.92 18.48-16.93 29.97-16.93h608.96c11.49 0 22.13 6.01 29.97 16.93 7.33 10.22 11.37 23.68 11.37 37.91v20.08l-4.24 1.82c-2.01 0.86-4.01 1.73-6 2.6-1.98 0.86-3.96 1.72-5.92 2.56-1.96 0.84-3.93 1.7-5.91 2.56-23.41 10.17-49.93 21.7-76.26 16.12-14.47-3.06-26.66-12.14-38.44-20.92-1.35-1-2.69-2.01-4.04-3-12.4-9.13-26.46-11.37-38.57-6.17-7.76 3.34-15.02 9.16-22.71 15.33-9.13 7.33-18.57 14.9-29.63 18.67-16.27 5.54-33.89 3.86-52.38-5-7.97-3.82-15.72-8.42-23.23-12.87-20-11.86-38.89-23.06-59.75-18.99-15.9 3.1-29.07 14.96-42.27 27.89-12.37 12.13-29.19 28.6-49.9 28.6z m-79.04-52.1c13.34 0 25.75 3.71 36.38 10.96 4.8 3.27 9.35 7.2 13.76 11 9.33 8.04 18.14 15.64 27.69 16.11 14.33 0.69 27.18-10.71 41.33-24.56 14.78-14.48 29.69-27.79 49.39-31.63 26.1-5.09 48.2 8.02 69.57 20.69 7.24 4.29 14.73 8.73 22.13 12.28 15.28 7.32 28.96 8.75 41.81 4.37 8.73-2.97 16.82-9.46 25.38-16.33 8.08-6.48 16.43-13.18 25.94-17.27 16.8-7.22 35.9-4.4 52.4 7.75 1.37 1.01 2.74 2.03 4.11 3.05 11.06 8.24 21.5 16.02 32.97 18.45 21.95 4.65 45.25-5.48 67.79-15.27 2-0.87 3.99-1.73 5.97-2.58 1.94-0.83 3.9-1.68 5.86-2.54 0.61-0.26 1.21-0.53 1.82-0.79v-10.86c0-22.14-12.52-40.84-27.34-40.84H195.57c-14.82 0-27.34 18.7-27.34 40.84v33.83c6.62 10.47 13.81 17.07 21.41 19.63 7.6 2.56 16.49 1.55 28.81-3.27 8.93-3.49 17.95-8.1 26.68-12.56 16.21-8.29 32.97-16.86 51.25-19.59 3.78-0.58 7.53-0.87 11.2-0.87z" fill="#7C4924" p-id="2198"></path><path d="M366.13 344.53h-55.05V200.02h55.05v144.51z m-41.05-14h27.05V214.02h-27.05v116.51zM327.42 117.35c6.6 11.65-1.13 21.31-6.34 31.72-5.55 11.07-7.39 24.6 0.28 35.33 6.92 9.69 18.19 6.36 25.48-0.92 7.84-7.83 13.76-19.56 14.27-30.72 0.81-17.78-10.23-35.13-25.48-43.62-6.75-3.76-12.81 6.6-6.06 10.36 11.37 6.32 19.4 18.43 19.55 31.64 0.09 8.15-4.35 16.88-9.76 22.79-1.77 1.94-4.84 4.74-6.76 4.72-0.27 0-0.56 0.11-1.14-0.65-1.55-2.04-2.27-4.63-2.84-7.08-2.19-9.44 3.96-17.62 8.09-25.56 5.89-11.3 7.59-22.56 1.07-34.06-3.81-6.73-14.18-0.69-10.36 6.05zM516.99 344.53h-55.05V200.02h55.05v144.51z m-41.04-14H503V214.02h-27.05v116.51zM478.28 117.35c6.6 11.65-1.13 21.31-6.34 31.72-5.55 11.07-7.39 24.6 0.28 35.33 6.92 9.69 18.19 6.36 25.48-0.92 7.84-7.83 13.76-19.56 14.27-30.72 0.81-17.78-10.23-35.13-25.48-43.62-6.75-3.76-12.81 6.6-6.06 10.36 11.37 6.32 19.4 18.43 19.55 31.64 0.09 8.15-4.35 16.88-9.76 22.79-1.77 1.94-4.84 4.74-6.76 4.72-0.27 0-0.56 0.11-1.14-0.65-1.55-2.04-2.27-4.63-2.84-7.08-2.19-9.44 3.96-17.62 8.09-25.56 5.89-11.3 7.59-22.56 1.07-34.06-3.81-6.73-14.18-0.69-10.36 6.05zM667.86 344.53h-55.05V200.02h55.05v144.51z m-41.05-14h27.05V214.02h-27.05v116.51zM629.14 117.35c6.6 11.65-1.13 21.31-6.34 31.72-5.55 11.07-7.39 24.6 0.28 35.33 6.92 9.69 18.19 6.36 25.48-0.92 7.84-7.83 13.76-19.56 14.27-30.72 0.81-17.78-10.23-35.13-25.48-43.62-6.75-3.76-12.81 6.6-6.06 10.36 11.37 6.32 19.4 18.43 19.55 31.64 0.09 8.15-4.35 16.88-9.76 22.79-1.77 1.94-4.84 4.74-6.76 4.72-0.27 0-0.56 0.11-1.14-0.65-1.55-2.04-2.27-4.63-2.84-7.08-2.19-9.44 3.96-17.62 8.09-25.56 5.89-11.3 7.59-22.56 1.07-34.06-3.8-6.73-14.17-0.69-10.36 6.05z" fill="#7C4924" p-id="2199"></path><path d="M222.65 461.34v46.91c0 9.65 15 9.67 15 0v-46.91c0-9.66-15-9.67-15 0zM232.76 554.84c9.65 0 9.67-15 0-15-9.66 0-9.67 15 0 15zM178.34 715.45v54.73c0 9.65 15 9.67 15 0v-54.73c0-9.65-15-9.66-15 0zM178.34 797.55v19.55c0 9.65 15 9.67 15 0v-19.55c0-9.65-15-9.67-15 0z" fill="#FFFFFF" p-id="2200"></path></svg>