<svg xmlns="http://www.w3.org/2000/svg" viewBox="0 0 1024 1024"><switch><g><path fill="#F9C82C" d="M369 225.7s-15.3-34.7-19.3-45.3c-4-10.7-17.3-10.7-26.7 0-9.3 10.7-18 42-18 42s-30 2.7-45.3 3.3c-15.3.7-20.7 18.7-10 27.3 10.7 8.7 34.7 30 34.7 30s-7.3 24.7-12 41.3c-4.7 16.7 6 26.7 24 18s35.3-20.7 35.3-20.7 21.3 10.4 40 23.9c18.7 13.5 25.3-3.2 20.7-18.5-4.7-15.3-8-35.3-8-35.3s31.3-28 40.7-38c9.3-10 4-21.3-10.7-24-14.7-2.7-45.4-4-45.4-4z"/><path fill="#FFF" d="M548.7 385.2s-12.5-28.3-15.8-37c-3.3-8.7-14.2-8.7-21.8 0-7.6 8.7-14.7 34.3-14.7 34.3s-24.5 2.2-37 2.7-16.9 15.2-8.2 22.3 28.3 24.5 28.3 24.5-6 20.1-9.8 33.8c-3.8 13.6 4.9 21.8 19.6 14.7s28.9-16.9 28.9-16.9 17.4 8.5 32.7 19.5c15.2 11 20.7-2.6 16.9-15.1s-6.5-28.9-6.5-28.9 25.6-22.9 33.2-31c7.6-8.2 3.3-17.4-8.7-19.6-12.1-2.2-37.1-3.3-37.1-3.3z"/><path fill="#E98A83" d="M669.4 125.1s-62.8-24.3-81.3-32.7c-18.4-8.4-35.2 8.4-33.5 33.5s30.2 75.4 30.2 75.4-34.4 41.1-52.8 61.2-2.5 49.4 21.8 46.9 81.3-5.9 81.3-5.9 21.8 40.2 36.9 67c15.1 26.8 41.1 26 52.8-7.5s18.4-70.4 18.4-70.4 39.9-13.8 80.3-20.3 27.8-35.8 2.7-49.3c-25.1-13.4-54.5-34.4-54.5-34.4s4.2-74.6 3.4-98.9-21.8-31.8-43.6-16.8c-21.8 15.3-62.1 52.2-62.1 52.2z"/><path fill="#CE6765" d="M755.7 77s-16 80-24.7 102.7-9.3 38 16.7 44.7c26 6.7 87.3 26 87.3 26l-72-58.7L755.7 77z"/><path fill="#4D5E7E" d="M336.9 578.1s2.7 166.5-73.8 313.5c0 0 189.9 150 475.5 0 0 0-79.5-139.5-75-313.5H336.9z"/><path fill="#D7DFE6" d="M343 628s73 75 272 49c0 0 42 171 104 209 0 0-73.1-172.2-60.1-267L343 628z"/><path fill="#FFF" d="M661 182.3c-1.3 0-2.7-.3-4-.8l-34-14.7c-5.1-2.2-7.4-8.1-5.2-13.1 2.2-5.1 8.1-7.4 13.1-5.2l34 14.7c5.1 2.2 7.4 8.1 5.2 13.1-1.5 3.8-5.2 6-9.1 6z"/><path fill="#E98A83" d="M658.3 411.8c24 13.5 38.3 30.4 38.3 48.6 0 44.8-85.9 81.1-191.9 81.1s-191.9-36.3-191.9-81.1c0-18.9 15.3-36.3 41.1-50.1-109.3 21.1-184.3 64.9-184.3 115.4 0 71.2 149 128.9 332.7 128.9S835 596.9 835 525.7c0-49.4-71.6-92.2-176.7-113.9z"/><ellipse fill="#FFF" cx="257.1" cy="536.8" rx="27" ry="12.7"/><ellipse fill="#FFF" cx="686.7" cy="250.3" rx="27" ry="12.7"/></g></switch></svg>