<svg xmlns="http://www.w3.org/2000/svg" viewBox="0 0 1024 1024"><switch><g><path fill="#1C2754" d="M852 448c-1.8 0-3.6-.5-5.2-1.5-11.5-7-17.4-17.9-17.2-31.5.6-38.7 53.5-93.1 81-108.7 11.3-6.4 17.7-13.2 18.4-19.7.8-7.1-5.2-13.9-8.9-17.3-11.5-10.6-18.6-12.8-18.6-12.9.2 0 .2.1.2.1l4.8-19.4c1.9.5 11.9 3.5 27.1 17.5 11.2 10.3 16.6 22.5 15.2 34.3-1.5 13.3-11.1 25-28.4 34.8-26.4 14.9-70.4 64-70.9 91.6-.1 6.5 2.2 10.9 7.6 14.1 4.7 2.9 6.2 9 3.3 13.7-1.7 3.2-5 4.9-8.4 4.9z"/><path fill="#4B77F4" d="M769.1 836.1h-248L377 959.6l-46.4-123.5H98c-18.7 0-34-15.3-34-34V352.6c0-18.7 15.3-34 34-34h671.1c18.7 0 34 15.3 34 34v449.5c0 18.7-15.3 34-34 34z"/><path opacity=".3" fill="#FFF" d="M791 791H511.8L396 896l-49-105H78s-4 35 25 35h233l44 111 145-114h246c15 0 20-32 20-32z"/><path fill="#FFF" d="M401 497H193c-5.5 0-10-4.5-10-10s4.5-10 10-10h208c5.5 0 10 4.5 10 10s-4.5 10-10 10zM401 605H193c-5.5 0-10-4.5-10-10s4.5-10 10-10h208c5.5 0 10 4.5 10 10s-4.5 10-10 10zM501 715H193c-5.5 0-10-4.5-10-10s4.5-10 10-10h308c5.5 0 10 4.5 10 10s-4.5 10-10 10z"/><path fill="#FFCA28" d="M786.7 274c-20-11-27.4-36.3-16.5-56.3l72-131.6c11-20 36.3-27.4 56.3-16.5 20 11 27.4 36.3 16.5 56.3l-72 131.6c-11 20-36.3 27.4-56.3 16.5z"/><path fill="#EF5350" d="M803 116c-13-7-30-5-38 11S494 600 494 600s17 100 17 115 12 26 30 19 112-46 112-46 266-461 271-468 16-24-8-38-113-66-113-66z"/><path opacity=".3" fill="#FFF" d="M897.6 183.9l-282 467.7-84.5 64.5 111.5-36 277.5-475.5z"/><path fill="#BC3B3B" d="M639.1 682.1c-1.6 0-3.3-.4-4.8-1.2l-124.2-68.4c-4.8-2.7-6.6-8.7-3.9-13.6 2.7-4.8 8.7-6.6 13.6-3.9L644 663.4c4.8 2.7 6.6 8.7 3.9 13.6-1.9 3.3-5.3 5.1-8.8 5.1z"/></g></switch></svg>