<?xml version="1.0" standalone="no"?><!DOCTYPE svg PUBLIC "-//W3C//DTD SVG 1.1//EN" "http://www.w3.org/Graphics/SVG/1.1/DTD/svg11.dtd"><svg t="1612079478684" class="icon" viewBox="0 0 1024 1024" version="1.1" xmlns="http://www.w3.org/2000/svg" p-id="6439" xmlns:xlink="http://www.w3.org/1999/xlink" width="128" height="128"><defs><style type="text/css"></style></defs><path d="M520.533 866.133c-17.066 0-29.866-4.266-38.4-17.066l-38.4-38.4H166.4c-38.4 0-68.267-29.867-68.267-68.267V243.2c0-38.4 29.867-68.267 68.267-68.267h712.533c38.4 0 68.267 29.867 68.267 68.267v494.933c0 38.4-29.867 68.267-68.267 68.267H601.6l-38.4 38.4c-12.8 17.067-25.6 21.333-42.667 21.333zM166.4 234.667c-4.267 0-12.8 4.266-12.8 12.8V742.4c0 4.267 4.267 12.8 12.8 12.8h302.933l55.467 55.467L576 755.2h302.933c4.267 0 12.8-4.267 12.8-12.8V243.2c0-4.267-4.266-12.8-12.8-12.8H166.4z" fill="#6A3906" p-id="6440"></path><path d="M797.867 682.667H243.2c-21.333 0-34.133-17.067-34.133-34.134V337.067c0-21.334 17.066-38.4 34.133-38.4h554.667C819.2 298.667 832 315.733 832 332.8v311.467c4.267 21.333-12.8 38.4-34.133 38.4z" fill="#F5CB2B" p-id="6441"></path><path d="M708.267 443.733h-371.2c-17.067 0-29.867-12.8-29.867-29.866C307.2 396.8 320 384 337.067 384h371.2c17.066 0 29.866 12.8 29.866 29.867 0 17.066-12.8 29.866-29.866 29.866zM512 622.933H337.067c-17.067 0-29.867-12.8-29.867-29.866C307.2 576 320 563.2 337.067 563.2H512c17.067 0 29.867 12.8 29.867 29.867 0 17.066-12.8 29.866-29.867 29.866z" fill="#6A3906" p-id="6442"></path></svg>