<svg xmlns="http://www.w3.org/2000/svg" viewBox="0 0 1024 1024"><switch><g><path fill="#FBE6CE" d="M705.7 252L573.6 581.2l73.8 26.6 164.7-307.9z"/><path fill="#EF5350" d="M697.5 272.5s120.6 77.9 146.1 6.5 51-129.2-19.5-215.1c0 0 .2 58.2-40.4 82.2s-115.3 36.8-86.2 126.4z"/><path fill="#C63E3E" d="M849.6 120.6s-31.5 162-94.5 168c0 0 115.5 85.5 94.5-168z"/><path fill="#4B77F4" d="M64 497c0 218 163 462.6 437 462.6s459.2-241.9 459.2-422.2C960.2 445 919 467 841 497s-283.8 80-328.9-54S549 179 555 149s28-85.1-82-85.1S64 179 64 497z"/><path fill="#3B68CC" d="M512 75s-91 195-47 380.5 297.5 160.5 422.7 45c0 0-266.6 93.4-371.6-8.1C489 435.9 471 279.7 543 180.3c22-49.3 8-94.2-31-105.3z"/><circle fill="#FFF" cx="333" cy="279" r="80"/><path fill="#C0C7E2" d="M393 252s-32 73-116 71c0 0 126 70 116-71z"/><circle fill="#FFF" cx="219" cy="473.1" r="80"/><path fill="#C0C7E2" d="M279 446.1s-32 73-116 71c0 0 126 70 116-71z"/><circle fill="#FFF" cx="277" cy="687.8" r="80"/><path fill="#C0C7E2" d="M337 660.8s-32 73-116 71c0 0 126 70 116-71z"/><circle fill="#FFF" cx="480.4" cy="808.9" r="80"/><path fill="#C0C7E2" d="M540.4 781.9s-32 73-116 71c0 0 126 70 116-71z"/><circle fill="#FFF" cx="703.4" cy="740.8" r="80"/><path fill="#C0C7E2" d="M763.4 713.8s-32 73-116 71c0 0 126 70 116-71z"/></g></switch></svg>