<?xml version="1.0" encoding="iso-8859-1"?>
<!-- Generator: Adobe Illustrator 22.0.0, SVG Export Plug-In . SVG Version: 6.00 Build 0)  -->
<svg version="1.1" id="&#x56FE;&#x5C42;_1" xmlns="http://www.w3.org/2000/svg" xmlns:xlink="http://www.w3.org/1999/xlink" x="0px"
	 y="0px" viewBox="0 0 1024 1024" style="enable-background:new 0 0 1024 1024;" xml:space="preserve">
<g>
	<path style="fill:#F2AAF0;" d="M784.767,836.298c-5.588-1.658-9.683-6.439-10.451-12.22l-18.155-136.14
		c-60.8,14.408-106.058,68.985-106.058,134.195c0,76.198,61.773,137.964,137.975,137.964c57.439,0,106.578-35.161,127.342-85.09
		L784.767,836.298z"/>
	<path style="fill:#F2AAF0;" d="M802.353,810.677l121.456,35.99c1.443-7.97,2.233-16.16,2.233-24.539
		c0-76.203-61.767-137.975-137.964-137.975c-0.868,0-1.73,0.038-2.587,0.066L802.353,810.677z"/>
	<path style="fill:#D87BDB;" d="M512,63.903c-245.714,0-444.903,199.19-444.903,444.904C67.097,754.52,266.286,953.71,512,953.71
		c40.351,0,79.436-5.405,116.598-15.469c-24.628-32.381-39.273-72.771-39.273-116.592c0-106.473,86.317-192.79,192.79-192.79
		c53.969,0,102.731,22.195,137.727,57.931c23.82-54.505,37.062-114.697,37.062-177.983C956.903,263.093,757.714,63.903,512,63.903
		 M558.922,523.054c-0.459,10.883-4.897,21.206-12.463,29.032L403.101,700.386c-8.721,9.036-20.35,13.568-31.989,13.568
		c-11.136,0-22.278-4.15-30.922-12.501c-17.663-17.078-18.139-45.242-1.061-62.911L470.737,502.39l9.175-215.461
		c1.044-24.55,21.847-43.451,46.342-42.556c24.544,1.05,43.6,21.797,42.556,46.347L558.922,523.054z"/>
</g>
</svg>
