<svg xmlns="http://www.w3.org/2000/svg" viewBox="0 0 1024 1024"><switch><g><path fill="#4B77F4" d="M829 897H126c-34.1 0-62-27.9-62-62V219c0-34.1 27.9-62 62-62h703c34.1 0 62 27.9 62 62v616c0 34.1-27.9 62-62 62z"/><path fill="#3C6BD3" d="M81.6 194.1h714c40.5 0 51 22.7 51 45.1V881s33-13.5 33-55.5V239.1c0-25.7-15-73.6-55.5-73.6H129.6c-22.5 0-37.5 7.6-48 28.6z"/><path fill="#3C6BD3" d="M867.6 389.5h-780c-5.5 0-10-4.5-10-10s4.5-10 10-10h780c5.5 0 10 4.5 10 10s-4.5 10-10 10z"/><path fill="#FFF" d="M265.6 315.2h-2c-34.1 0-62-27.9-62-62V125.9c0-34.1 27.9-62 62-62h2c34.1 0 62 27.9 62 62v127.3c0 34.1-27.9 62-62 62z"/><path fill="#D9DCE8" d="M246.5 87.6s40.6 12 40.6 52.5v163.4s30-25.4 30-53.9v-117c0-30.3-36.2-70.5-70.6-45z"/><path fill="#FFF" d="M478.6 315.2h-2c-34.1 0-62-27.9-62-62V125.9c0-34.1 27.9-62 62-62h2c34.1 0 62 27.9 62 62v127.3c0 34.1-27.9 62-62 62z"/><path fill="#D9DCE8" d="M459.5 87.6s40.6 12 40.6 52.5v163.4s30-25.4 30-53.9v-117c0-30.3-36.2-70.5-70.6-45z"/><path fill="#FFF" d="M696.6 315.2h-2c-34.1 0-62-27.9-62-62V125.9c0-34.1 27.9-62 62-62h2c34.1 0 62 27.9 62 62v127.3c0 34.1-27.9 62-62 62z"/><path fill="#D9DCE8" d="M677.5 87.6s40.6 12 40.6 52.5v163.4s30-25.4 30-53.9v-117c0-30.3-36.2-70.5-70.6-45z"/><path fill="#FFF" d="M268.1 576.6h-68.5c-12.1 0-22-9.9-22-22v-71.2c0-12.1 9.9-22 22-22h68.5c12.1 0 22 9.9 22 22v71.2c0 12.1-9.9 22-22 22zM418.1 576.6h-68.5c-12.1 0-22-9.9-22-22v-71.2c0-12.1 9.9-22 22-22h68.5c12.1 0 22 9.9 22 22v71.2c0 12.1-9.9 22-22 22zM268.1 780.6h-68.5c-12.1 0-22-9.9-22-22v-71.2c0-12.1 9.9-22 22-22h68.5c12.1 0 22 9.9 22 22v71.2c0 12.1-9.9 22-22 22zM418.1 780.6h-68.5c-12.1 0-22-9.9-22-22v-71.2c0-12.1 9.9-22 22-22h68.5c12.1 0 22 9.9 22 22v71.2c0 12.1-9.9 22-22 22zM572.6 576.6h-68.5c-12.1 0-22-9.9-22-22v-71.2c0-12.1 9.9-22 22-22h68.5c12.1 0 22 9.9 22 22v71.2c0 12.1-9.9 22-22 22z"/><circle fill="#FBE6CE" cx="707.3" cy="707.3" r="252.3"/><circle fill="#EF5350" cx="707.3" cy="707.3" r="166.3"/><path fill="#CC4040" d="M860.1 707.3s-91.5 164.8-279 82.3c0 0 61.5 108 199.5 52.5 56.4-30.8 79.5-119.6 79.5-134.8z"/><path fill="#FFF" d="M758.1 717.3h-50.8c-5.5 0-10-4.5-10-10v-99.2c0-5.5 4.5-10 10-10s10 4.5 10 10v89.2h40.8c5.5 0 10 4.5 10 10s-4.5 10-10 10z"/></g></switch></svg>