<?xml version="1.0" standalone="no"?><!DOCTYPE svg PUBLIC "-//W3C//DTD SVG 1.1//EN" "http://www.w3.org/Graphics/SVG/1.1/DTD/svg11.dtd"><svg t="1611119272689" class="icon" viewBox="0 0 1024 1024" version="1.1" xmlns="http://www.w3.org/2000/svg" p-id="3995" xmlns:xlink="http://www.w3.org/1999/xlink" width="200" height="200"><defs><style type="text/css"></style></defs><path d="M646.4 121.6H96c-25.6 0-51.2 25.6-51.2 51.2v748.8c0 25.6 25.6 51.2 51.2 51.2H640c25.6 0 51.2-25.6 51.2-51.2V172.8c6.4-25.6-19.2-51.2-44.8-51.2z m-256 518.4H166.4c-12.8 0-19.2-6.4-19.2-19.2 0-12.8 6.4-19.2 19.2-19.2h224c12.8 0 19.2 6.4 19.2 19.2 0 12.8-12.8 19.2-19.2 19.2z m166.4-153.6H166.4c-12.8 0-19.2-6.4-19.2-19.2 0-12.8 6.4-19.2 19.2-19.2h390.4c12.8 0 19.2 6.4 19.2 19.2 0 12.8-6.4 19.2-19.2 19.2z m0-140.8H166.4c-12.8 0-19.2-6.4-19.2-19.2 0-12.8 6.4-19.2 19.2-19.2h390.4c12.8 0 19.2 6.4 19.2 19.2 0 12.8-6.4 19.2-19.2 19.2z" fill="#F9D65D" p-id="3996"></path><path d="M394.24 716.16l420.8-420.928 162.944 162.944-420.864 420.864z" fill="#FE6D68" p-id="3997"></path><path d="M364.8 844.8c12.8 6.4 32 12.8 44.8 25.6 12.8 12.8 19.2 25.6 25.6 44.8l128-25.6-160-160-38.4 115.2z" fill="#E6E6E6" p-id="3998"></path><path d="M364.8 844.8l-19.2 83.2 83.2-19.2c-6.4-12.8-12.8-32-25.6-44.8-6.4-6.4-25.6-12.8-38.4-19.2z" fill="#534E4E" p-id="3999"></path><path d="M204.8 211.2c-6.4 0-19.2-6.4-19.2-19.2V64c0-12.8 6.4-19.2 19.2-19.2 12.8 0 19.2 6.4 19.2 19.2v128c0 12.8-6.4 19.2-19.2 19.2zM371.2 211.2c-12.8 0-19.2-6.4-19.2-19.2V64c0-12.8 6.4-19.2 19.2-19.2 12.8 0 19.2 6.4 19.2 19.2v128c0 12.8-12.8 19.2-19.2 19.2zM531.2 211.2c-6.4 0-12.8-6.4-12.8-19.2V64c0-12.8 6.4-19.2 19.2-19.2 12.8 0 19.2 6.4 19.2 19.2v128c-6.4 12.8-12.8 19.2-25.6 19.2z" fill="#FFFFFF" p-id="4000"></path></svg>