<?xml version="1.0" standalone="no"?><!DOCTYPE svg PUBLIC "-//W3C//DTD SVG 1.1//EN" "http://www.w3.org/Graphics/SVG/1.1/DTD/svg11.dtd"><svg t="1612006589316" class="icon" viewBox="0 0 1024 1024" version="1.1" xmlns="http://www.w3.org/2000/svg" p-id="8373" xmlns:xlink="http://www.w3.org/1999/xlink" width="128" height="128"><defs><style type="text/css"></style></defs><path d="M586.72 992h-71.04c-8.8 0-16-7.2-16-16V613.76c0-8.8 7.2-16 16-16h71.04c8.8 0 16 7.2 16 16V976c0 8.8-7.2 16-16 16z" fill="#629FF9" p-id="8374"></path><path d="M284.96 152c-118.56 0-214.72 96-214.72 214.24v351.36h429.28V366.24c0.16-118.24-96-214.24-214.56-214.24z" fill="#2166CC" p-id="8375"></path><path d="M520.32 632H204.16c-26.56 0-48-21.44-48-48V388.64c0-26.56 21.44-48 48-48h316.16c26.56 0 48 21.44 48 48V584c0 26.56-21.44 48-48 48z" fill="#D2E4FF" p-id="8376"></path><path d="M568.32 392a51.36 51.36 0 0 0-51.52-51.36H207.68c-28.48 0-51.52 23.04-51.52 51.36v10.72l187.2 98.72c11.84 6.24 25.92 6.24 37.76 0l187.2-98.72v-10.72z" fill="#FFFFFF" p-id="8377"></path><path d="M740 152h-446.4v0.48c114.56 4.48 206.08 98.4 206.08 213.92v351.36h429.28c28.48 0 51.52-23.04 51.52-51.36V392c0-132.48-107.68-240-240.48-240z" fill="#4E8DF6" p-id="8378"></path><path d="M860.32 32H688.48c-9.44 0-17.12 7.68-17.12 17.12v351.36a25.744 25.744 0 1 0 51.52 0V117.76h137.44c9.44 0 17.12-7.68 17.12-17.12V49.12c0-9.44-7.68-17.12-17.12-17.12z" fill="#2166CC" p-id="8379"></path><path d="M912.96 666.24h-36.64c-8.8 0-16-7.2-16-16v-36.64c0-8.8 7.2-16 16-16h36.64c8.8 0 16 7.2 16 16v36.64c0 8.96-7.2 16-16 16z" fill="#FFFFFF" p-id="8380"></path><path d="M70.4 717.76l-25.28 137.12c-10.08 56.8 28 102.88 84.8 102.88h223.2c56.96 0 111.2-46.08 121.28-102.88l24.16-137.12H70.4z" fill="#2974CE" p-id="8381"></path></svg>