<?xml version="1.0" standalone="no"?><!DOCTYPE svg PUBLIC "-//W3C//DTD SVG 1.1//EN" "http://www.w3.org/Graphics/SVG/1.1/DTD/svg11.dtd"><svg id="图层_1" data-name="图层 1" xmlns="http://www.w3.org/2000/svg" viewBox="0 0 1024 1024"><defs><style>.cls-1{fill:#7fd2f0;}.cls-2{fill:#37a3bc;}.cls-3{fill:#997657;}.cls-4{fill:#ffc703;}.cls-5{fill:#e9e5e7;}</style></defs><title>11111111</title><circle class="cls-1" cx="483.9" cy="579.2" r="328.5"/><circle class="cls-1" cx="726.9" cy="282.2" r="130.5"/><circle class="cls-1" cx="407.4" cy="142.7" r="63"/><circle class="cls-1" cx="875.4" cy="781.7" r="63"/><rect class="cls-2" x="180.54" y="415.04" width="668.24" height="494.99"/><rect class="cls-2" x="279.54" y="316.04" width="668.24" height="494.99"/><polygon class="cls-2" points="279.54 637.79 527.04 439.79 650.79 588.29 749.78 489.29 947.78 662.54 947.78 811.04 279.54 811.04 279.54 637.79 279.54 637.79"/><circle class="cls-2" cx="836.41" cy="452.17" r="61.87"/><path class="cls-2" d="M730,196.94v66.17"/><path class="cls-2" d="M982.23,874.43V940.6"/><rect class="cls-1" x="105.94" y="373.12" width="668.24" height="494.99"/><rect class="cls-3" x="204.94" y="274.12" width="668.24" height="494.99"/><polygon class="cls-4" points="204.94 595.86 452.44 397.87 576.19 546.36 675.19 447.36 873.18 620.61 873.18 769.11 204.94 769.11 204.94 595.86 204.94 595.86"/><circle class="cls-5" cx="761.81" cy="410.24" r="61.87"/></svg>