<svg xmlns="http://www.w3.org/2000/svg" viewBox="0 0 1024 1024"><switch><g><ellipse fill="#FBE6CE" cx="513.1" cy="587.1" rx="274.5" ry="207"/><path fill="#E0CBB6" d="M348.6 436.2S641.1 418 731.1 480c0 .1-181.5-166.2-382.5-43.8z"/><circle fill="#4B77F4" cx="512.7" cy="240" r="177.6"/><path fill="#FFCA28" d="M512.1 536.1s-103.5-93.3-342-99.9c-51 0-40.5 33-40.5 49.9V818c0 19.5 0 27 45 28.5s202.5 24 297 79.5c22.5 13.5 28.5 42 73.5 9s123-73.5 310.5-91.5c33-1.5 46.5-13.5 46.5-34.5V474.5c0-28.5 0-40.8-54-38.4-54 2.5-207 5.5-336 100z"/><path opacity=".3" fill="#FFF" d="M149.2 477s221.8.6 362.8 92.1c0 0 231.1-112.2 382.6-92.1 0 0-4.6-33-23.6-33s-221 8-359 101c0 0-173-114-355-101-14 8-15.7 23.9-7.8 33z"/><path fill="#FFF" d="M458.1 658.6c-2 0-3.9-.6-5.7-1.8-48.7-33.7-101-48.1-136.2-54.3-38.5-6.7-65.8-5.4-66-5.4-5.5.3-10.2-3.9-10.5-9.5s3.9-10.2 9.4-10.5c1.2-.1 29.3-1.5 69.9 5.6 37.4 6.5 92.9 21.8 144.8 57.7 4.5 3.1 5.7 9.4 2.5 13.9-1.9 2.8-5 4.3-8.2 4.3zM458.1 798.1c-2 0-3.9-.6-5.7-1.8-48.7-33.7-101-48.1-136.2-54.3-38.5-6.7-65.8-5.4-66-5.4-5.5.3-10.2-3.9-10.5-9.5s3.9-10.2 9.4-10.5c1.2-.1 29.3-1.5 69.9 5.6 37.4 6.5 92.9 21.8 144.8 57.7 4.5 3.1 5.7 9.4 2.5 13.9-1.9 2.8-5 4.3-8.2 4.3zM564.5 658.6c2 0 3.9-.6 5.7-1.8 48.7-33.7 101-48.1 136.2-54.3 38.5-6.7 65.8-5.4 66-5.4 5.5.3 10.2-3.9 10.5-9.5s-3.9-10.2-9.4-10.5c-1.2-.1-29.3-1.5-69.9 5.6-37.4 6.5-92.9 21.8-144.8 57.7-4.5 3.1-5.7 9.4-2.5 13.9 1.9 2.8 5 4.3 8.2 4.3zM564.5 798.1c2 0 3.9-.6 5.7-1.8 48.7-33.7 101-48.1 136.2-54.3 38.5-6.7 65.8-5.4 66-5.4 5.5.3 10.2-3.9 10.5-9.5s-3.9-10.2-9.4-10.5c-1.2-.1-29.3-1.5-69.9 5.6-37.4 6.5-92.9 21.8-144.8 57.7-4.5 3.1-5.7 9.4-2.5 13.9 1.9 2.8 5 4.3 8.2 4.3z"/><path fill="#FBE6CE" d="M133 735h-7c-34.1 0-62-27.9-62-62v-80c0-34.1 27.9-62 62-62h7c34.1 0 62 27.9 62 62v80c0 34.1-27.9 62-62 62zM898.1 735h-7c-34.1 0-62-27.9-62-62v-80c0-34.1 27.9-62 62-62h7c34.1 0 62 27.9 62 62v80c0 34.1-27.9 62-62 62z"/><path fill="#FFF" d="M516.1 330.6c-10 0-18.8-1.5-26.2-3.5-23.1-6.2-37-18.7-37.6-19.3-4.1-3.7-4.4-10-.7-14.1s10-4.4 14.1-.7c1.9 1.7 45.4 39.4 105.8-.9 4.6-3.1 10.8-1.8 13.9 2.8 3.1 4.6 1.8 10.8-2.8 13.9-25 16.6-47.8 21.8-66.5 21.8z"/></g></switch></svg>