<?xml version="1.0" standalone="no"?><!DOCTYPE svg PUBLIC "-//W3C//DTD SVG 1.1//EN" "http://www.w3.org/Graphics/SVG/1.1/DTD/svg11.dtd"><svg t="1611752739662" class="icon" viewBox="0 0 1024 1024" version="1.1" xmlns="http://www.w3.org/2000/svg" p-id="1543" xmlns:xlink="http://www.w3.org/1999/xlink" width="128" height="128"><defs><style type="text/css"></style></defs><path d="M512 150.528c-109.568 0-198.656 89.6-198.656 198.656V419.84l63.488-1.536V339.968c0-69.632 56.832-126.464 126.464-126.464h17.92c69.632 0 126.464 56.832 126.464 126.464v83.456l63.488-1.024V349.184c-0.512-109.056-89.6-198.656-199.168-198.656z" fill="#7A7AF9" p-id="1544"></path><path d="M674.816 403.456H349.184C269.312 403.456 204.8 463.872 204.8 537.6v201.216c0 74.24 64.512 134.144 144.384 134.144h325.12c79.872 0 144.384-59.904 144.384-134.144V537.6c0.512-73.728-64-134.144-143.872-134.144z" fill="#CCDAFF" p-id="1545"></path><path d="M544.768 675.328c0 16.384-14.848 30.208-32.768 30.208s-32.768-13.824-32.768-30.208v-73.728c0-16.384 14.848-30.208 32.768-30.208s32.768 13.824 32.768 30.208v73.728z" fill="#7A7AF9" p-id="1546"></path></svg>