<?xml version="1.0" standalone="no"?><!DOCTYPE svg PUBLIC "-//W3C//DTD SVG 1.1//EN" "http://www.w3.org/Graphics/SVG/1.1/DTD/svg11.dtd"><svg t="1610271388362" class="icon" viewBox="0 0 1024 1024" version="1.1" xmlns="http://www.w3.org/2000/svg" p-id="904" xmlns:xlink="http://www.w3.org/1999/xlink" width="128" height="128"><defs><style type="text/css"></style></defs><path d="M512 105.3c-220.7 0-399.7 179-399.7 399.7s179 399.7 399.7 399.7 399.7-179 399.7-399.7-179-399.7-399.7-399.7z m241.6 270.8h-0.5v175.4h-99.8v-90.1l-46.6 49.7c13.7 27.1 21.4 57.6 21.4 90 0 110.4-89.5 200-199.9 200s-199.9-89.5-199.9-200 89.5-200 199.9-200c36.1 0 70.1 9.6 99.3 26.4l48.3-51.4h-97.5v-99.7h275.3v99.7z" fill="#0091FF" p-id="905"></path><path d="M428 501.5c-55.1 0-99.7 44.8-99.7 100s44.6 100 99.7 100 99.7-44.8 99.7-100-44.7-100-99.7-100z" fill="#0091FF" p-id="906"></path></svg>