<?xml version="1.0" encoding="iso-8859-1"?>
<!-- Generator: Adobe Illustrator 22.0.0, SVG Export Plug-In . SVG Version: 6.00 Build 0)  -->
<svg version="1.1" id="&#x56FE;&#x5C42;_1" xmlns="http://www.w3.org/2000/svg" xmlns:xlink="http://www.w3.org/1999/xlink" x="0px"
	 y="0px" viewBox="0 0 1024 1024" style="enable-background:new 0 0 1024 1024;" xml:space="preserve">
<g>
	<path style="fill:#FFC15E;" d="M804.03,700.437V434.954c0-151.672-117.18-277.229-265.484-290.758h-53.096
		c-148.3,13.529-265.484,139.086-265.484,290.758v265.483H804.03z"/>
	<path style="fill:#FFD399;" d="M511.997,959.333c30.08,0.006,58.924-11.939,80.199-33.209c21.27-21.266,33.214-50.114,33.21-80.194
		H398.593c-0.005,30.08,11.94,58.929,33.21,80.194C453.073,947.394,481.918,959.339,511.997,959.333"/>
	
		<path style="fill:none;stroke:#FFFFFF;stroke-width:37.1527;stroke-linecap:round;stroke-linejoin:round;stroke-miterlimit:10;" d="
		M605.198,258.652c0,0,88.911,44.453,96.996,141.45"/>
	<path style="fill:#FFC15E;" d="M835.312,797.432H188.683c-26.782,0-48.494-21.71-48.494-48.498
		c0-26.783,21.711-48.499,48.494-48.499h646.628c26.787,0,48.498,21.716,48.498,48.499
		C883.81,775.722,862.099,797.432,835.312,797.432"/>
	<path style="fill:#FFC15E;" d="M560.497,113.16v64.665c0,26.783-21.716,48.499-48.498,48.499S463.5,204.607,463.5,177.824V113.16
		c0-26.782,21.716-48.493,48.498-48.493S560.497,86.378,560.497,113.16"/>
</g>
</svg>
