<?xml version="1.0" standalone="no"?><!DOCTYPE svg PUBLIC "-//W3C//DTD SVG 1.1//EN" "http://www.w3.org/Graphics/SVG/1.1/DTD/svg11.dtd"><svg t="1612078367716" class="icon" viewBox="0 0 1024 1024" version="1.1" xmlns="http://www.w3.org/2000/svg" p-id="1298" xmlns:xlink="http://www.w3.org/1999/xlink" width="128" height="128"><defs><style type="text/css"></style></defs><path d="M496.355556 116.622222c9.955556-2.844444 21.333333-2.844444 32.711111 0l334.222222 102.4c11.377778 2.844444 19.911111 14.222222 19.911111 25.6v207.644445C881.777778 664.177778 723.911111 861.866667 512 910.222222c-211.911111-48.355556-369.777778-246.044444-369.777778-456.533333V244.622222c0-11.377778 8.533333-22.755556 19.911111-25.6l334.222223-102.4z m120.888888 317.155556h-11.377777V398.222222c0-49.777778-41.244444-85.333333-93.866667-85.333333s-93.866667 35.555556-93.866667 85.333333v35.555556h-11.377777c-19.911111 0-36.977778 15.644444-36.977778 35.555555v147.911111c0 19.911111 17.066667 35.555556 36.977778 35.555556h210.488888c19.911111 0 36.977778-15.644444 36.977778-35.555556V470.755556c0-19.911111-17.066667-36.977778-36.977778-36.977778zM512 577.422222c-18.488889 0-32.711111-14.222222-32.711111-32.711111s14.222222-32.711111 32.711111-32.711111 32.711111 14.222222 32.711111 32.711111-14.222222 32.711111-32.711111 32.711111z m54.044444-143.644444h-109.511111V398.222222c0-29.866667 24.177778-52.622222 54.044445-52.622222s54.044444 22.755556 54.044444 52.622222v35.555556z" fill="#7330BF" p-id="1299"></path></svg>