<?xml version="1.0" encoding="utf-8"?>
<!-- Generator: Adobe Illustrator 23.0.2, SVG Export Plug-In . SVG Version: 6.00 Build 0)  -->
<svg version="1.1" id="图层_1" xmlns="http://www.w3.org/2000/svg" xmlns:xlink="http://www.w3.org/1999/xlink" x="0px" y="0px"
	 viewBox="0 0 1024 1024" style="enable-background:new 0 0 1024 1024;" xml:space="preserve">
<style type="text/css">
	.st0{fill-rule:evenodd;clip-rule:evenodd;fill:url(#SVGID_1_);}
	.st1{fill-rule:evenodd;clip-rule:evenodd;fill:url(#SVGID_2_);}
	.st2{fill-rule:evenodd;clip-rule:evenodd;fill:url(#SVGID_3_);}
</style>
<g>
	<g>
		<linearGradient id="SVGID_1_" gradientUnits="userSpaceOnUse" x1="576.1075" y1="256.7452" x2="960.8107" y2="256.7452">
			<stop  offset="0" style="stop-color:#5CC738"/>
			<stop  offset="1" style="stop-color:#FFD443"/>
		</linearGradient>
		<path class="st0" d="M592.21,232.67l20.47,7.55c-1.62,14.91-1.12,30.11,1.69,45.25l-19.75,9.09
			c-12.36,5.68-17.76,20.35-12.06,32.71l11.54,25.01c5.67,12.37,20.33,17.8,32.66,12.07l19.78-9.08
			c9.68,11.97,20.89,22.25,33.27,30.73l-7.55,20.41c-4.71,12.77,1.84,26.96,14.56,31.67l25.89,9.56
			c12.32,4.53,27.09-2.27,31.63-14.56l7.55-20.44c14.91,1.57,30.11,1.04,45.24-1.72l9.1,19.72c5.66,12.37,20.34,17.77,32.66,12.09
			l25.05-11.51c12.32-5.71,17.76-20.38,12.08-32.7l-9.09-19.74c11.92-9.7,22.25-20.92,30.73-33.31l20.4,7.55
			c12.33,4.6,27.12-2.2,31.68-14.56l9.53-25.88c1-2.71,1.51-5.51,1.54-8.29v-0.31c-0.01-3.49-0.77-6.97-2.26-10.24
			c-2.78-5.96-7.69-10.52-13.84-12.79l-20.49-7.55c1.66-14.91,1.13-30.15-1.68-45.25l19.76-9.09c12.34-5.67,17.73-20.35,12.09-32.67
			l-11.57-25.05c-5.67-12.37-20.31-17.76-32.64-12.08l-19.8,9.09c-9.67-11.96-20.88-22.25-33.24-30.72l7.55-20.43
			c2.29-6.17,2.02-12.87-0.75-18.83c-2.73-6-7.66-10.57-13.84-12.83l-25.89-9.56c-6.15-2.26-12.82-2-18.84,0.73
			c-5.96,2.76-10.48,7.68-12.78,13.87l-7.55,20.46c-14.92-1.63-30.13-1.08-45.26,1.69l-9.09-19.73
			C725,70.64,710.32,65.22,698.01,70.9l-25.05,11.53c-12.34,5.69-17.75,20.34-12.04,32.67l9.1,19.77
			c-11.98,9.66-22.25,20.88-30.73,33.28l-20.45-7.59c-6.19-2.26-12.86-2.01-18.88,0.76c-5.93,2.76-10.49,7.69-12.74,13.84
			l-9.57,25.87C572.93,213.76,579.46,227.96,592.21,232.67L592.21,232.67z M727.69,168.34c12.91-5.97,26.61-8.95,40.73-8.95
			c37.91,0,72.66,22.25,88.51,56.64c22.47,48.82,1.05,106.78-47.72,129.25c-12.91,5.96-26.6,8.95-40.69,8.95
			c-37.92,0-72.67-22.21-88.56-56.64C657.5,248.78,678.91,190.8,727.69,168.34z"/>
		<linearGradient id="SVGID_2_" gradientUnits="userSpaceOnUse" x1="339.6064" y1="175.5556" x2="553.7953" y2="175.5556">
			<stop  offset="0" style="stop-color:#5CC738"/>
			<stop  offset="1" style="stop-color:#FFD443"/>
		</linearGradient>
		<path class="st1" d="M348.54,162.16l11.4,4.2c-0.89,8.3-0.61,16.78,0.97,25.19l-11.01,5.07c-6.9,3.16-9.88,11.32-6.71,18.19
			l6.39,13.95c3.2,6.9,11.33,9.92,18.19,6.72l11.03-5.07c5.39,6.69,11.61,12.4,18.52,17.11l-4.21,11.39
			c-2.62,7.09,1.04,14.99,8.13,17.61l14.41,5.32c6.87,2.56,15.06-1.23,17.61-8.09l4.21-11.39c8.29,0.9,16.78,0.59,25.2-0.96l5.06,11
			c3.16,6.87,11.33,9.88,18.19,6.72l13.94-6.44c6.87-3.16,9.9-11.32,6.72-18.18l-5.07-11c6.66-5.39,12.41-11.65,17.11-18.54
			l11.39,4.2c6.84,2.55,15.06-1.23,17.62-8.12l5.32-14.41c1.26-3.43,1.12-7.16-0.4-10.51c-1.54-3.3-4.28-5.86-7.73-7.12l-11.39-4.2
			c0.89-8.3,0.61-16.75-0.94-25.2l11-5.07c6.87-3.15,9.88-11.31,6.73-18.17l-6.43-13.95c-3.17-6.87-11.33-9.88-18.19-6.72l-11,5.07
			c-5.4-6.69-11.65-12.4-18.54-17.11l4.21-11.35c1.25-3.46,1.11-7.19-0.4-10.54c-1.53-3.31-4.26-5.86-7.72-7.12l-14.37-5.31
			c-3.45-1.27-7.19-1.12-10.51,0.4c-3.34,1.54-5.89,4.26-7.14,7.68l-4.16,11.43c-8.34-0.93-16.79-0.62-25.24,0.93l-5.07-11
			c-3.13-6.86-11.32-9.88-18.16-6.71l-13.97,6.43c-6.86,3.16-9.88,11.32-6.72,18.18l5.07,11.04c-6.65,5.35-12.37,11.6-17.07,18.5
			l-11.4-4.2c-3.45-1.29-7.18-1.12-10.49,0.4c-3.35,1.54-5.86,4.28-7.16,7.73l-5.28,14.41
			C337.83,151.62,341.47,159.53,348.54,162.16L348.54,162.16z M423.98,126.32c7.19-3.31,14.82-5,22.68-5
			c21.11,0,40.48,12.4,49.29,31.56c12.54,27.18,0.62,59.45-26.57,71.96c-7.17,3.3-14.81,4.99-22.64,4.99
			c-21.14,0-40.47-12.4-49.31-31.56C384.91,171.1,396.85,138.82,423.98,126.32z"/>
		<linearGradient id="SVGID_3_" gradientUnits="userSpaceOnUse" x1="63.1892" y1="636.2327" x2="709.9855" y2="636.2327">
			<stop  offset="0" style="stop-color:#5CC738"/>
			<stop  offset="1" style="stop-color:#FFD443"/>
		</linearGradient>
		<path class="st2" d="M90.26,595.76l34.4,12.67c-2.73,25.09-1.83,50.65,2.89,76.1L94.33,699.8c-20.74,9.53-29.83,34.22-20.27,55
			l19.37,42.09c9.57,20.74,34.18,29.86,54.93,20.31l33.23-15.36c16.29,20.13,35.16,37.42,55.93,51.68l-12.69,34.37
			c-7.87,21.42,3.09,45.28,24.52,53.19l43.48,16.11c20.75,7.62,45.55-3.81,53.21-24.52l12.67-34.4c25.09,2.7,50.65,1.81,76.1-2.87
			l15.3,33.18c9.53,20.77,34.19,29.86,54.93,20.3l42.12-19.37c20.74-9.55,29.83-34.22,20.31-54.95l-15.34-33.2
			c20.09-16.29,37.41-35.15,51.67-56l34.33,12.72c20.74,7.7,45.54-3.73,53.24-24.48l16.02-43.52c3.84-10.4,3.42-21.63-1.23-31.66
			c-4.63-10.06-12.93-17.72-23.24-21.49l-34.4-12.73c2.72-25.05,1.84-50.68-2.92-76.09l33.25-15.27
			c20.74-9.57,29.85-34.22,20.28-54.92l-19.37-42.16c-9.56-20.69-34.22-29.84-54.95-20.28l-33.21,15.31
			c-16.29-20.12-35.16-37.41-55.96-51.64l12.68-34.36c3.85-10.4,3.42-21.64-1.22-31.7c-4.6-10.02-12.9-17.68-23.25-21.53
			l-43.49-16.07c-10.4-3.81-21.64-3.38-31.67,1.22c-10.06,4.64-17.72,12.9-21.53,23.29l-12.72,34.39
			c-25.05-2.73-50.65-1.83-76.09,2.88l-15.27-33.21c-9.57-20.74-34.23-29.87-54.97-20.3l-42.09,19.4
			c-20.77,9.56-29.83,34.17-20.27,54.96l15.28,33.2c-20.09,16.29-37.42,35.12-51.65,55.94l-34.36-12.73
			c-10.4-3.81-21.64-3.38-31.7,1.25c-10.03,4.64-17.68,12.91-21.5,23.27l-16.08,43.52C57.85,563.93,68.86,587.84,90.26,595.76
			L90.26,595.76z M318.03,487.53c21.74-9.95,44.74-15.02,68.47-15.02c63.76,0,122.16,37.38,148.84,95.28
			c37.76,82.03,1.78,179.5-80.23,217.27c-21.66,9.99-44.71,15.05-68.42,15.05c-63.77,0-122.21-37.37-148.88-95.25
			C200.06,622.78,236.03,525.34,318.03,487.53z"/>
	</g>
</g>
</svg>
