<?xml version="1.0" standalone="no"?><!DOCTYPE svg PUBLIC "-//W3C//DTD SVG 1.1//EN" "http://www.w3.org/Graphics/SVG/1.1/DTD/svg11.dtd"><svg id="图层_1" data-name="图层 1" xmlns="http://www.w3.org/2000/svg" xmlns:xlink="http://www.w3.org/1999/xlink" viewBox="0 0 1024 1024"><defs><style>.cls-1{fill:url(#未命名的渐变_41);}</style><linearGradient id="未命名的渐变_41" x1="65.27" y1="516.15" x2="967" y2="516.15" gradientUnits="userSpaceOnUse"><stop offset="0" stop-color="#ea7b7f"/><stop offset="1" stop-color="#ea6d6f"/></linearGradient></defs><title>一</title><path class="cls-1" d="M779.06,878.87c-7.62-4.9-14.8-8.34-20.55-13.41-32-28.26-68.65-37.58-108.38-21.74-40,15.94-60.25,47.82-61.59,91-.6,19.32-9.52,30.81-29.21,31.13-29.5.47-59,.13-88.54-.33-19.65-.31-28-10.78-29.69-30.49-1.42-16.4-4.42-33.82-11.61-48.37-28.44-57.52-105.63-70.46-154.79-27.25-22.64,19.9-29.63,20.76-51.22.7-20.14-18.71-38.91-38.94-57.7-59-12.48-13.35-12.51-27,.62-40.89,30-31.65,39.79-68.55,22.83-109.41-16.47-39.65-47.59-60.17-90.85-62.19C78.89,587.7,66.71,578,66.32,557.3c-.49-26.17-1.95-52.45-.25-78.51,2.18-33.13,6.42-33.8,38.74-39.53,19.83-3.51,41.07-10.38,57.05-22.07,45.36-33.15,50-98.66,12.82-141.1-22.34-25.5-23-30.73,0-55.77,17.7-19.23,37.11-36.94,56.3-54.75,13.9-12.89,28.19-13.39,42.79.21,32,29.78,69.67,38.69,109.89,22.18,39.64-16.28,59.54-48.53,60.72-91.78.5-18.28,9.44-29.56,28.26-29.81q46.26-.6,92.55.61c16.94.42,25,10.48,26.07,27.25.66,10.68,1.26,21.65,4.12,31.86,19.73,70.44,104.29,95.77,160.52,48.42,27-22.75,31-23.36,57.29,1C832.37,193.24,850,212.71,867.75,232c11.88,12.89,11.48,26.34-.86,39.32-30.07,31.6-40.16,68.34-23.67,109.34S892.3,441,935.89,443.5c17.65,1,29.67,9.91,30.17,28.64.76,28.83,1.69,57.78,0,86.52-1.58,26.38-7.28,30.26-33.73,32.3C877,595.24,838.17,631,834,682.29c-2.38,28.9,6.52,54.28,26.14,75.85,19.25,21.17,20.19,29.27,1.27,49.7-19.14,20.65-39.8,39.94-60.48,59.09C795.36,872.05,787.34,874.47,779.06,878.87ZM366.51,515.22c-1.33,82.49,65.16,150.95,147.79,152.14,84.11,1.21,152.42-64.94,153.38-148.54.93-81-64.92-150.62-143.78-152.1C436.23,365.09,367.9,429.55,366.51,515.22Z"/></svg>