<?xml version="1.0" standalone="no"?><!DOCTYPE svg PUBLIC "-//W3C//DTD SVG 1.1//EN" "http://www.w3.org/Graphics/SVG/1.1/DTD/svg11.dtd"><svg t="1611752725500" class="icon" viewBox="0 0 1024 1024" version="1.1" xmlns="http://www.w3.org/2000/svg" p-id="1398" xmlns:xlink="http://www.w3.org/1999/xlink" width="128" height="128"><defs><style type="text/css"></style></defs><path d="M674.304 338.432c-14.336 0-26.112-9.728-29.184-24.064-11.776-57.344-62.976-101.376-123.904-101.376h-16.384c-70.656 0-128.512 57.856-128.512 128.512v80.896l-63.488 1.024V359.424c0-102.912 73.728-196.096 176.128-207.872 102.4-11.776 192.512 56.32 215.552 150.016 4.608 18.944-10.752 36.864-29.696 36.864h-0.512z" fill="#7A7AF9" p-id="1399"></path><path d="M674.816 403.456H349.184C269.312 403.456 204.8 463.872 204.8 537.6v201.216c0 74.24 64.512 134.144 144.384 134.144h325.12c79.872 0 144.384-59.904 144.384-134.144V537.6c0.512-73.728-64-134.144-143.872-134.144z" fill="#CCDAFF" p-id="1400"></path><path d="M544.768 675.328c0 16.384-14.848 30.208-32.768 30.208s-32.768-13.824-32.768-30.208v-73.728c0-16.384 14.848-30.208 32.768-30.208s32.768 13.824 32.768 30.208v73.728z" fill="#7A7AF9" p-id="1401"></path></svg>