<svg xmlns="http://www.w3.org/2000/svg" viewBox="0 0 1024 1024"><switch><g><path fill="#EF5350" d="M697 783H197c-35.2 0-64-28.8-64-64V127.9c0-35.2 28.8-64 64-64h500c35.2 0 64 28.8 64 64V719c0 35.2-28.8 64-64 64z"/><path fill="#C94141" d="M230.3 78.3s-52.7 18-52.7 58.7v583.3c0 21.3 28.7 49.3 52.7 54 0 0-86.7 3.3-86.7-56.7v-596c0-24.7 34.1-60.6 86.7-43.3z"/><path fill="#FFF" d="M180.6 248.1h-73.1c-23.9 0-43.5-19.6-43.5-43.5s19.6-43.5 43.5-43.5h73.1c23.9 0 43.5 19.6 43.5 43.5s-19.6 43.5-43.5 43.5z"/><path fill="#EFD8D8" d="M76 204.6S97 190 115 190h66.5c10.5 0 23.1 2.7 32 14.6 0 0-11.6-31.1-31.1-31.1H104c-12 0-31.5 17.2-28 31.1z"/><path fill="#FFF" d="M180.6 456.1h-73.1c-23.9 0-43.5-19.6-43.5-43.5s19.6-43.5 43.5-43.5h73.1c23.9 0 43.5 19.6 43.5 43.5s-19.6 43.5-43.5 43.5z"/><path fill="#EFD8D8" d="M76 412.6S97 398 115 398h66.5c10.5 0 23.1 2.7 32 14.6 0 0-11.6-31.1-31.1-31.1H104c-12 0-31.5 17.2-28 31.1z"/><path fill="#FFF" d="M180.6 680.6h-73.1C83.6 680.6 64 661 64 637.1s19.6-43.5 43.5-43.5h73.1c23.9 0 43.5 19.6 43.5 43.5 0 24-19.6 43.5-43.5 43.5z"/><path fill="#EFD8D8" d="M76 637.2s21-14.6 39-14.6h66.5c10.5 0 23.1 2.7 32 14.6 0 0-11.6-31.1-31.1-31.1H104c-12 0-31.5 17.2-28 31.1z"/><path fill="#FBE6CE" d="M369 169l-103.3 58v118.7L369 407l106-60.7V227z"/><path fill="#DBC4AD" d="M365 189l75.3 59.3V323l-71.1 60.9 92.5-44.2V239z"/><path fill="#FFF" d="M671 289H550c-5.5 0-10-4.5-10-10s4.5-10 10-10h121c5.5 0 10 4.5 10 10s-4.5 10-10 10zM671 332H550c-5.5 0-10-4.5-10-10s4.5-10 10-10h121c5.5 0 10 4.5 10 10s-4.5 10-10 10z"/><path fill="#FFCA28" d="M106.3 855S77.6 937.7 75 946.3c-2.7 8.7-1.3 17.3 22 9.3s81.3-27.3 81.3-27.3 317.3-318 326.7-328c9.3-10 5.3-44-12.7-58s-44.7-21.3-64.7-4.7C407.7 554.3 106.3 855 106.3 855z"/><path fill="#D3A629" d="M488.7 573.7L161 897.7l-63.3 38L171 915s310-311.3 317.7-318 0-23.3 0-23.3z"/><path fill="#4B77F4" d="M896.2 960.1H604c-35.2 0-64-28.8-64-64V471c0-35.2 28.8-64 64-64h292.2c35.2 0 64 28.8 64 64v425.1c0 35.2-28.8 64-64 64z"/><path fill="#3B68CC" d="M574 431s273 13 300 13 70 37 74 204V481c0-25-19-64-57-64s-309.1-3.7-317 14z"/><path fill="#FFF" d="M850.2 573.7H655.8c-27.4 0-49.8-22.4-49.8-49.8s22.4-49.8 49.8-49.8h194.3c27.4 0 49.8 22.4 49.8 49.8.1 27.4-22.3 49.8-49.7 49.8z"/><path fill="#DDE4F2" d="M617 523.8s24.7-20.2 48-20.2h186c10.7 0 31.3 7.7 39.3 20.2 0 0-14.7-40.8-38.7-40.8H652.9c-21.4 0-37.2 27.7-35.9 40.8z"/><g fill="#FFF"><path d="M722 688.7h-28.3v-28.3c0-5.5-4.5-10-10-10s-10 4.5-10 10v28.3h-28.3c-5.5 0-10 4.5-10 10s4.5 10 10 10h28.3V737c0 5.5 4.5 10 10 10s10-4.5 10-10v-28.3H722c5.5 0 10-4.5 10-10s-4.5-10-10-10zM722 830.7h-76.7c-5.5 0-10 4.5-10 10s4.5 10 10 10H722c5.5 0 10-4.5 10-10s-4.5-10-10-10zM787.3 830.7H864c5.5 0 10-4.5 10-10s-4.5-10-10-10h-76.7c-5.5 0-10 4.5-10 10s4.5 10 10 10zM864 852.7h-76.7c-5.5 0-10 4.5-10 10s4.5 10 10 10H864c5.5 0 10-4.5 10-10s-4.5-10-10-10zM795.5 732.8c3.9 3.9 10.2 3.9 14.1 0l20-20 20 20c3.9 3.9 10.2 3.9 14.1 0s3.9-10.2 0-14.1l-20-20 20-20c3.9-3.9 3.9-10.2 0-14.1s-10.2-3.9-14.1 0l-20 20-20-20c-3.9-3.9-10.2-3.9-14.1 0s-3.9 10.2 0 14.1l20 20-20 20c-3.9 3.9-3.9 10.2 0 14.1z"/></g></g></switch></svg>