<?xml version="1.0" standalone="no"?><!DOCTYPE svg PUBLIC "-//W3C//DTD SVG 1.1//EN" "http://www.w3.org/Graphics/SVG/1.1/DTD/svg11.dtd"><svg t="1610259189364" class="icon" viewBox="0 0 1024 1024" version="1.1" xmlns="http://www.w3.org/2000/svg" p-id="10077" xmlns:xlink="http://www.w3.org/1999/xlink" width="128" height="128"><defs><style type="text/css"></style></defs><path d="M928 400A240 240 0 0 0 567.68 192a224 224 0 1 0-366.4 256l-3.52 3.2-15.68 13.76-5.12 5.44-12.8 14.08-4.16 8.32-10.88 14.4-5.12 7.68-8.96 15.04-7.04 8.64-8.32 16.96-3.2 7.68c-2.24 5.44-4.16 10.56-6.72 18.24 0 2.56 0 5.12-2.56 7.68s-2.88 11.2-4.8 19.2l-1.92 7.68c0 6.08-1.92 12.16-3.2 21.12V896h312.64A96 96 0 0 0 480 928h352a96 96 0 0 0 96-96v-288a96 96 0 0 0-17.28-54.72A235.84 235.84 0 0 0 928 400z" fill="#FFFFFF" p-id="10078"></path><path d="M688 400m-208 0a208 208 0 1 0 416 0 208 208 0 1 0-416 0Z" fill="#E9EAEB" p-id="10079"></path><path d="M384 416a256 256 0 0 1 256 256v192H128v-192a256 256 0 0 1 256-256z" fill="#A3D4FF" p-id="10080"></path><path d="M352 450.56v-32A256 256 0 0 0 128 672v192h224v-32H160v-160a224 224 0 0 1 192-221.44z" fill="#2A5082" p-id="10081"></path><path d="M384 320m-192 0a192 192 0 1 0 384 0 192 192 0 1 0-384 0Z" fill="#FFFFFF" p-id="10082"></path><path d="M384 160a160 160 0 1 1-160 160 160 160 0 0 1 160-160m0-32a192 192 0 1 0 192 192 192 192 0 0 0-192-192z" fill="#2A5082" p-id="10083"></path><path d="M416 480m64 0l352 0q64 0 64 64l0 288q0 64-64 64l-352 0q-64 0-64-64l0-288q0-64 64-64Z" fill="#FFFFFF" p-id="10084"></path><path d="M480 480h352a64 64 0 0 1 64 64v64H416v-64a64 64 0 0 1 64-64z" fill="#A3D4FF" p-id="10085"></path><path d="M832 512a32 32 0 0 1 32 32v288a32 32 0 0 1-32 32H480a32 32 0 0 1-32-32v-288a32 32 0 0 1 32-32h352m0-32H480a64 64 0 0 0-64 64v288a64 64 0 0 0 64 64h352a64 64 0 0 0 64-64v-288a64 64 0 0 0-64-64z" fill="#2A5082" p-id="10086"></path><path d="M832 576H480v32h352v-32zM576 672h-96v32h96v-32zM832 768h-96v32h96v-32zM832 672h-224v32h224v-32z" fill="#2A5082" p-id="10087"></path><path d="M608 672v32h-32v-32h32m32-32h-96v96h96v-96zM704 768h-224v32h224v-32z" fill="#2A5082" p-id="10088"></path><path d="M736 768v32h-32v-32h32m32-32h-96v96h96v-96z" fill="#2A5082" p-id="10089"></path></svg>