<svg xmlns="http://www.w3.org/2000/svg" viewBox="0 0 1024 1024"><switch><g><path fill="#101D59" d="M724.8 695.8l-311-43.7c-28.3-4-48.2-30.4-44.3-58.7l66.6-474.3c4-28.3 30.4-48.2 58.7-44.3l311 43.7c28.3 4 48.2 30.4 44.3 58.7l-66.6 474.3c-3.9 28.3-30.3 48.2-58.7 44.3z"/><path fill="#FFCA28" d="M223 63.9c-40 0-78 11.1-78 89.1v754c0 32 14 53.1 78 53.1h462c30 0 70-5.1 70-39.1V291.4c0-20.3-10-40.4-28-58.4S551 63.9 551 63.9H223z"/><path fill="#D8A925" d="M542.1 72.6s135 173.7 147 186.6c12 12.9 22.5 41.6 22.5 76v608.9s31.5 4.5 31.5-27v-615c0-22.5 7.5-29.5-18-58.2s-183-171.3-183-171.3z"/><path fill="#EF5350" d="M329 471H116c-28.6 0-52-23.4-52-52V219.9c0-28.6 23.4-52 52-52h213c28.6 0 52 23.4 52 52V419c0 28.6-23.4 52-52 52z"/><path opacity=".3" fill="#FFF" d="M332 180v245c0 10-10 17-24 17H84s12 19 58 19h169c29 0 61-5.9 61-43.9V234c0-24-18-51-40-54z"/><path fill="#FFF" d="M203 381c-7.3 0-14.5-2.6-20.3-7.9l-30-27.5c-12.2-11.2-13-30.2-1.9-42.4 11.2-12.2 30.2-13 42.4-1.9l10.1 9.2 58.8-52.1c12.4-11 31.4-9.8 42.3 2.6s9.8 31.4-2.6 42.3l-79 70c-5.6 5.2-12.7 7.7-19.8 7.7zM320 672h-33c-28.6 0-52-23.4-52-52v-36c0-28.6 23.4-52 52-52h33c28.6 0 52 23.4 52 52v36c0 28.6-23.4 52-52 52zM516 314h-82c-5.5 0-10-4.5-10-10s4.5-10 10-10h82c5.5 0 10 4.5 10 10s-4.5 10-10 10zM586 392H434c-5.5 0-10-4.5-10-10s4.5-10 10-10h152c5.5 0 10 4.5 10 10s-4.5 10-10 10zM516 573h-82c-5.5 0-10-4.5-10-10s4.5-10 10-10h82c5.5 0 10 4.5 10 10s-4.5 10-10 10zM586 651H434c-5.5 0-10-4.5-10-10s4.5-10 10-10h152c5.5 0 10 4.5 10 10s-4.5 10-10 10z"/><path fill="#FBE6CE" d="M551 821s-35.8 100-38.9 111 6.9 28 29.9 22 113-36 113-36 263-265 275-277 15-63 0-78-18-23-37-31-41-10-68 16-274 273-274 273z"/><path opacity=".3" fill="#FFF" d="M924 587L633.5 877.4l18.1 29.9S917 638.1 924 631.1s0-44.1 0-44.1z"/><path fill="#D6BEA5" d="M644.2 910.5c-2.4 0-4.8-.9-6.7-2.6l-75.8-68.6c-4.1-3.7-4.4-10-.7-14.1s10-4.4 14.1-.7l75.8 68.6c4.1 3.7 4.4 10 .7 14.1-2 2.2-4.7 3.3-7.4 3.3zM888.2 661.6c-2.4 0-4.8-.9-6.7-2.6l-75.8-68.6c-4.1-3.7-4.4-10-.7-14.1s10-4.4 14.1-.7l75.8 68.6c4.1 3.7 4.4 10 .7 14.1-2 2.1-4.7 3.3-7.4 3.3z"/></g></switch></svg>