<?xml version="1.0" standalone="no"?><!DOCTYPE svg PUBLIC "-//W3C//DTD SVG 1.1//EN" "http://www.w3.org/Graphics/SVG/1.1/DTD/svg11.dtd"><svg t="1610271407742" class="icon" viewBox="0 0 1024 1024" version="1.1" xmlns="http://www.w3.org/2000/svg" p-id="1044" xmlns:xlink="http://www.w3.org/1999/xlink" width="128" height="128"><defs><style type="text/css"></style></defs><path d="M512 105.5c-220.6 0-399.5 178.9-399.5 399.5S291.4 904.5 512 904.5 911.5 725.6 911.5 505 732.6 105.5 512 105.5z m200 621.9H561.5v75.1h-99.1v-75.1H312V627.3h150.4v-6.2c-33.6-8.6-65.5-25.9-91.8-52.2-78-78-78-204.5 0-282.5s204.5-78 282.5 0 78 204.5 0 282.5c-26.3 26.3-58.1 43.7-91.7 52.2v6.2h150.4v100.1h0.2z" fill="#FF4D94" p-id="1045"></path><path d="M582.4 356.1c-39.1-39.1-102.5-39.1-141.6 0-39.1 39.1-39.1 102.4 0 141.5 39.1 39.1 102.5 39.1 141.6 0 39.1-39 39.1-102.4 0-141.5z" fill="#FF4D94" p-id="1046"></path></svg>